<svg width="2667" height="346" xmlns="http://www.w3.org/2000/svg" xmlns:xlink="http://www.w3.org/1999/xlink" xml:space="preserve" overflow="hidden"><defs><clipPath id="clip0"><rect x="835" y="1009" width="2667" height="346"/></clipPath></defs><g clip-path="url(#clip0)" transform="translate(-835 -1009)"><path d="M1739.81 1209.03 1730.68 1210.71C1711.76 1213.11 1700.63 1214.54 1697.28 1215.02 1684.59 1216.94 1673.57 1219.57 1664.23 1222.92 1648.91 1228.66 1641.25 1239.79 1641.25 1256.3 1641.25 1259.89 1641.61 1263.48 1642.32 1267.06 1644.66 1280.34 1652.99 1288.64 1667.31 1291.96L1683.33 1293.59 1699.13 1292.01C1704.7 1290.93 1710.47 1289.32 1716.46 1287.16 1732.02 1281.9 1739.81 1275.2 1739.81 1267.06ZM1457.48 1142.2 1438.9 1144.31C1432.73 1145.75 1426.72 1147.9 1420.85 1150.78 1406.25 1158.19 1398.94 1167.52 1398.94 1178.77L1398.94 1241.22C1398.94 1252.47 1406.01 1261.2 1420.13 1267.42 1425.52 1269.82 1431.18 1271.61 1437.11 1272.81L1455.3 1274.56 1480.35 1269.67C1487.59 1266.37 1493.67 1261.44 1498.58 1254.86 1507.2 1243.13 1511.51 1227.46 1511.51 1207.84 1511.51 1189.18 1507.08 1173.98 1498.22 1162.26 1493.43 1155.56 1487.62 1150.53 1480.8 1147.18ZM2672.67 1125.65 2672.67 1162.62 2672.31 1181.28 2710.53 1181.28 2710.53 1125.65ZM2584.67 1125.65 2584.67 1181.28 2623.25 1181.28C2623.25 1176.02 2623.25 1168.96 2623.25 1160.1L2623.25 1125.65ZM1882.26 1120.26 1882.26 1120.27 1882.83 1120.27 1945.4 1245.67 2007.61 1120.62 2048.2 1120.62 2048.2 1120.63 2048.77 1120.63 1928.09 1355 1890.37 1355 1890.38 1355 1889.8 1355 1918.54 1294.7 1828.38 1120.62ZM1250.56 1118.11 1251.13 1118.12 1251.13 1118.11 1299.26 1118.47 1299.26 1315.16 1298.69 1315.16 1298.69 1315.16 1250.92 1314.8ZM1464.82 1112.73 1465.19 1112.75 1465.39 1112.73C1495.8 1112.73 1519.92 1121.28 1537.76 1138.39 1555.6 1155.5 1564.16 1179.25 1563.44 1209.64 1561.29 1272.57 1527.05 1304.03 1460.72 1304.03L1460.49 1304.01 1460.15 1304.03C1448.41 1304.03 1437.4 1302.86 1427.1 1300.53L1398.94 1290.24 1398.94 1354.64 1350.81 1354.64 1350.81 1354.64 1350.24 1354.64 1350.24 1118.83 1396.21 1118.83 1396.21 1118.83 1396.79 1118.83 1396.79 1132.18 1425.58 1117.66C1437.01 1114.37 1450.09 1112.73 1464.82 1112.73ZM1695.63 1111.65 1695.85 1111.67 1696.2 1111.65C1756.54 1111.65 1786.71 1130.2 1786.71 1167.29L1786.71 1272.45C1786.71 1278.55 1787.52 1283.07 1789.14 1286L1796.19 1289.91 1806.61 1286.35C1810.32 1284.38 1814.15 1281.66 1818.1 1278.19L1823.49 1278.19 1823.49 1278.19 1824.07 1278.19 1826.22 1300.8C1815.45 1312.53 1802.87 1318.99 1788.51 1320.19L1788.15 1320.12 1787.93 1320.18C1779.07 1320.66 1771.44 1319.35 1765.04 1316.23L1749.69 1301.69 1718.65 1315.25C1705.6 1318.42 1689.97 1320.18 1671.78 1320.54L1671.46 1320.51 1671.2 1320.54C1652.77 1320.54 1636.72 1317.07 1623.07 1310.13 1606.55 1301.76 1596.97 1289.32 1594.34 1272.81 1593.86 1268.98 1593.62 1265.27 1593.62 1261.68 1593.62 1230.81 1612.54 1209.28 1650.37 1197.07 1664.5 1192.53 1690.6 1188.82 1728.67 1185.95 1733.22 1185.71 1736.57 1184.51 1738.73 1182.36L1738.73 1165.13C1738.73 1152.21 1729.37 1144 1710.64 1140.5L1689.08 1138.59 1670.34 1140.05C1663.75 1141.16 1656.93 1142.88 1649.87 1145.21 1635.74 1149.88 1624.01 1155.92 1614.67 1163.34L1607.84 1163.34 1607.84 1163.34 1607.27 1163.34 1607.27 1128.88C1617.81 1124.81 1628.22 1121.22 1638.52 1118.11 1653.36 1113.8 1672.4 1111.65 1695.63 1111.65ZM2211.61 1087.54 2176.57 1104.47C2165.73 1111.89 2155.94 1120.98 2147.2 1131.75 2128.53 1154.72 2117.51 1182.48 2114.16 1215.02 2112.48 1231.29 2112.96 1244.33 2115.6 1254.14 2117.51 1262.04 2120.98 1267.66 2126.01 1271.01L2137.87 1274.15 2147.04 1270.44C2168.47 1258.35 2186.41 1223.72 2200.86 1166.57 2203.5 1156.04 2205.71 1144.16 2207.51 1130.94ZM3031.63 1073.25 3031.83 1073.51 3032.2 1073.25C3063.57 1103.16 3087.04 1134.15 3102.6 1166.21 3117.45 1197.55 3126.43 1233.33 3129.54 1273.53L3078.18 1279.27 3078.17 1279.2 3077.6 1279.27C3073.77 1239.78 3064.79 1204.25 3050.67 1172.67 3039.17 1147.06 3022.41 1121.22 3000.38 1095.14ZM972.836 1072.58 923.212 1199.23 1017.82 1199.23ZM2840.19 1057.45 2840.76 1057.49 2840.76 1057.46 2892.84 1060.33C2889.49 1079.95 2886.02 1099.81 2882.43 1119.91 2878.36 1146.47 2876.2 1168.84 2875.96 1187.03 2875.48 1218.13 2879.79 1242.9 2888.89 1261.32L2891.84 1263.61 2895.95 1260.42C2898.17 1258.15 2901.13 1254.74 2904.84 1250.19 2905.08 1249.95 2920.89 1227.94 2952.25 1184.15L2952.63 1184.42 2952.83 1184.15 2980.48 1203.9C2971.38 1218.01 2958.21 1238.11 2940.97 1264.19 2928.76 1281.66 2921.94 1294.58 2920.5 1302.96 2918.59 1315.64 2909.73 1322.34 2893.92 1323.06L2893.61 1322.97 2893.35 1323.05C2883.77 1323.29 2874.07 1317.91 2864.26 1306.9 2839.83 1279.86 2827.86 1239.9 2828.34 1187.02 2828.34 1169.56 2830.01 1146.82 2833.37 1118.83 2837.2 1086.05 2839.47 1065.59 2840.19 1057.45ZM2250.07 1056.38 2250.41 1056.4 2250.64 1056.38C2292.31 1056.38 2327.03 1066.91 2354.8 1087.96 2385.45 1111.41 2400.78 1143.6 2400.78 1184.51 2400.78 1233.81 2384.5 1270.06 2351.93 1293.27 2326.55 1311.45 2287.04 1322.46 2233.4 1326.29L2233.38 1326.2 2232.83 1326.28 2226.01 1295.06C2251.15 1292.43 2270.66 1288.48 2284.55 1283.21 2295.81 1279.15 2308.02 1272.33 2321.19 1262.76 2330.53 1255.82 2337.83 1243.61 2343.1 1226.15 2348.36 1210.83 2350.76 1195.4 2350.28 1179.85 2349.8 1151.85 2341.3 1129.36 2324.78 1112.37 2311.85 1099.09 2295.08 1090.52 2274.47 1086.66L2253.16 1084.43 2254.24 1099.45C2254.24 1110.94 2253.28 1125.53 2251.36 1143.24 2249.69 1159.51 2248.13 1170.28 2246.69 1175.54 2237.12 1212.39 2226.94 1239.91 2216.16 1258.09 2199.16 1286.81 2176.65 1304.51 2148.64 1311.21 2144.09 1312.17 2139.42 1312.65 2134.63 1312.65L2134.37 1312.61 2134.06 1312.65C2114.18 1312.65 2097.9 1303.07 2085.21 1283.93 2073.72 1265.99 2068.21 1244.81 2068.69 1220.4 2069.65 1173.5 2088.68 1134.14 2125.8 1102.32 2161 1071.69 2202.42 1056.38 2250.07 1056.38ZM948.857 1036.28 1006.32 1036.28 1006.33 1036.28 1006.9 1036.28 1123.63 1315.52 1065.8 1315.52 1065.8 1315.52 1065.23 1315.52 1030.39 1230.81 911.358 1230.81 874.364 1315.52 835.573 1315.52 835.574 1315.52 835 1315.52ZM1275.34 1031.61 1275.63 1031.67 1275.91 1031.61C1284.06 1031.61 1291.06 1034.49 1296.93 1040.23 1302.79 1045.97 1305.85 1052.91 1306.08 1061.05 1306.32 1069.18 1303.45 1076.3 1297.47 1082.4 1291.48 1088.5 1284.3 1091.55 1275.91 1091.55L1275.62 1091.5 1275.34 1091.55C1266.96 1091.55 1259.84 1088.56 1253.97 1082.58 1248.1 1076.6 1245.17 1069.54 1245.17 1061.4 1245.17 1053.03 1248.1 1045.97 1253.97 1040.23 1259.84 1034.48 1266.96 1031.61 1275.34 1031.61ZM1152.67 1029.46 1201.52 1029.46 1201.52 1029.46 1202.09 1029.46 1202.09 1315.52 1153.25 1315.52 1153.25 1315.52 1152.67 1315.52ZM2483.53 1010.44 2484.09 1010.51 2484.11 1010.44 2531.16 1016.9C2527.57 1041.3 2520.86 1066.91 2511.04 1093.71L2511.04 1332.75 2465.79 1332.75 2465.79 1332.75 2465.22 1332.75 2465.22 1184.63 2447.83 1210 2447.45 1209.71 2447.26 1209.99 2423.55 1192.05C2437.68 1168.36 2450.49 1138.57 2461.98 1102.68 2472.76 1069.18 2479.94 1038.43 2483.53 1010.44ZM3308.91 1009 3358.84 1009 3358.84 1009 3359.41 1009 3359.41 1066.07 3501.43 1066.07 3501.43 1066.07 3502 1066.07 3502 1093.35 3317.39 1093.35 3314.51 1141.08 3465.15 1141.08 3465.15 1141.08 3465.72 1141.08C3465.72 1220.53 3461.05 1270.65 3451.72 1291.47 3447.89 1299.85 3441.54 1306.91 3432.68 1312.65 3420.95 1320.54 3406.46 1324.49 3389.22 1324.49L3333.55 1324.49 3333.55 1324.49 3332.98 1324.49 3324.71 1281.06 3380.75 1281.06C3393.2 1281.06 3401.7 1275.68 3406.25 1264.91 3410.74 1254.86 3413.54 1234.31 3414.67 1203.26L3415.23 1168.72 3310.56 1168.72C3306.01 1194.08 3299.31 1215.38 3290.45 1232.61 3269.38 1274 3234.54 1306.55 3185.93 1330.23L3185.77 1329.99 3185.36 1330.23 3167.04 1301.88C3200.8 1284.17 3226.54 1257.13 3244.26 1220.76 3258.15 1191.33 3265.33 1154.12 3265.81 1109.14 3265.81 1109.02 3265.84 1107.64 3265.9 1105.01L3266.17 1093.35 3175.51 1093.35 3175.51 1093.35 3174.94 1093.35 3174.94 1066.07 3308.91 1066.07ZM2623.25 1009 2672.1 1009 2672.1 1009 2672.67 1009 2672.67 1041.3 2770.51 1041.3 2770.51 1041.3 2771.08 1041.3 2771.08 1068.58 2672.67 1068.58 2672.67 1098.73 2755.43 1098.73 2755.43 1098.73 2756 1098.73 2756 1208.56 2669.44 1208.56C2666.33 1228.66 2660.22 1245.89 2651.12 1260.25L2650.4 1260.96 2653.28 1262.04C2681.77 1274.24 2724.51 1282.86 2781.5 1287.88L2763.9 1330.95 2763.37 1330.85 2763.33 1330.95C2736.39 1327.96 2711.22 1323.23 2687.81 1316.77L2623.25 1292.32 2584.05 1317.04C2569.14 1323.68 2552.47 1328.68 2534.03 1332.03L2533.96 1331.88 2533.46 1332.03 2520.17 1302.24C2547.47 1295.3 2569.5 1284.53 2586.26 1269.93 2570.93 1259.41 2555.37 1246.96 2539.56 1232.61L2561.83 1209.64 2562.18 1209.87 2562.41 1209.64 2610.09 1242 2616.61 1227.4 2620.74 1208.56 2539.06 1208.56 2539.06 1208.56 2538.49 1208.56 2538.49 1098.73 2623.25 1098.73 2623.25 1068.58 2531.16 1068.58 2531.16 1068.58 2530.58 1068.58 2530.58 1041.3 2623.25 1041.3Z" fill="#FFFFFF" fill-rule="evenodd"/></g></svg>